<svg width="25" height="24" viewBox="0 0 25 24" fill="none" xmlns="http://www.w3.org/2000/svg">
<path fill-rule="evenodd" clip-rule="evenodd" d="M6.64845 2C7.13464 2 7.52878 2.39414 7.52878 2.88033V4.83774C10.8478 4.54215 14.1868 4.54215 17.5058 4.83774V2.88033C17.5058 2.39414 17.9 2 18.3862 2C18.8723 2 19.2665 2.39414 19.2665 2.88033V5.01241C21.0189 5.2602 22.4035 6.64634 22.6378 8.41447L22.7394 9.18088C23.1667 12.4044 23.1298 15.6726 22.6298 18.8858C22.3821 20.4774 21.0891 21.7 19.486 21.858L18.0857 21.9961C14.3824 22.3613 10.6522 22.3613 6.94885 21.9961L5.54853 21.858C3.94546 21.7 2.65237 20.4774 2.40469 18.8858C1.90471 15.6726 1.86781 12.4044 2.29511 9.18088L2.3967 8.41447C2.63108 6.64631 4.0156 5.26016 5.76812 5.0124V2.88033C5.76812 2.39414 6.16226 2 6.64845 2ZM7.17096 6.63968C10.7266 6.28905 14.308 6.28905 17.8636 6.63968L18.9263 6.7445C19.9438 6.84482 20.7581 7.63239 20.8924 8.64582L20.994 9.41223C21.0295 9.67998 21.0616 9.94807 21.0904 10.2164H3.94415C3.9729 9.94807 4.005 9.68 4.04049 9.41225L4.14208 8.64582C4.27642 7.63239 5.09081 6.84482 6.10817 6.7445L7.17096 6.63968ZM3.8042 11.9771C3.68896 14.1933 3.8025 16.4177 4.14441 18.615C4.26864 19.4134 4.91724 20.0265 5.72132 20.1059L7.12164 20.2439C10.71 20.5978 14.3246 20.5978 17.9129 20.2439L19.3132 20.1059C20.1172 20.0265 20.7659 19.4134 20.8902 18.615C21.2321 16.4177 21.3456 14.1933 21.2303 11.9771H3.8042Z" fill="black"/>
</svg>
