<svg width="25" height="24" viewBox="0 0 25 24" fill="none" xmlns="http://www.w3.org/2000/svg">
<path fill-rule="evenodd" clip-rule="evenodd" d="M11.666 2C6.69546 2 2.66602 6.02944 2.66602 11C2.66602 15.9706 6.69546 20 11.666 20C13.791 20 15.744 19.2635 17.2837 18.0319L20.9589 21.7071C21.3494 22.0976 21.9826 22.0976 22.3731 21.7071C22.7636 21.3166 22.7636 20.6834 22.3731 20.2929L18.6979 16.6177C19.9295 15.078 20.666 13.125 20.666 11C20.666 6.02944 16.6366 2 11.666 2ZM4.66602 11C4.66602 7.13401 7.80003 4 11.666 4C15.532 4 18.666 7.13401 18.666 11C18.666 14.866 15.532 18 11.666 18C7.80003 18 4.66602 14.866 4.66602 11Z" fill="#BF7152"/>
<circle cx="12" cy="9" r="5" fill="#BF7152"/>
<path d="M11.7371 7.47414L8.17864 12.675L5.81595 9.63091L11.7371 7.47414Z" fill="white"/>
</svg>
