<svg width="25" height="24" viewBox="0 0 25 24" fill="none" xmlns="http://www.w3.org/2000/svg">
<path fill-rule="evenodd" clip-rule="evenodd" d="M11.6665 2C6.69594 2 2.6665 6.02944 2.6665 11C2.6665 15.9706 6.69594 20 11.6665 20C13.7915 20 15.7445 19.2635 17.2842 18.0319L20.9594 21.7071C21.3499 22.0976 21.9831 22.0976 22.3736 21.7071C22.7641 21.3166 22.7641 20.6834 22.3736 20.2929L18.6984 16.6177C19.93 15.078 20.6665 13.125 20.6665 11C20.6665 6.02944 16.6371 2 11.6665 2ZM4.6665 11C4.6665 7.13401 7.80051 4 11.6665 4C15.5325 4 18.6665 7.13401 18.6665 11C18.6665 14.866 15.5325 18 11.6665 18C7.80051 18 4.6665 14.866 4.6665 11Z" fill="#262626"/>
<circle cx="12" cy="9" r="5" fill="#262626"/>
<path d="M11.7371 7.47432L8.17864 12.6752L5.81595 9.63109L11.7371 7.47432Z" fill="white"/>
</svg>
