<svg width="28" height="30" viewBox="0 0 28 30" fill="none" xmlns="http://www.w3.org/2000/svg">
<path d="M5.43151 28.7113L10.4886 28.7112C12.0689 28.7113 13.3332 27.447 13.2541 25.9457L13.3332 4.05817C13.3332 2.47787 12.0689 1.21359 10.5676 1.29257L5.51055 1.2926C4.72036 1.29258 4.00922 1.52964 3.45611 2.08276C2.903 2.63587 2.66594 3.347 2.58692 4.05816L2.58691 25.8667C2.66593 26.5778 2.90299 27.289 3.4561 27.8421C4.00922 28.3952 4.72035 28.6323 5.43151 28.7113ZM4.87837 25.9457L4.87838 3.97912C4.87843 3.82115 4.95746 3.74213 5.03647 3.66311C5.11548 3.5841 5.35247 3.50502 5.43149 3.42601L10.4886 3.42605C10.8046 3.42602 11.0416 3.66305 11.0417 3.97915L11.0417 6.66568L7.88104 6.66573C7.56494 6.66568 7.32787 6.74468 7.09082 6.98173C6.85377 7.21878 6.77478 7.45584 6.77482 7.77196C6.77483 8.40409 7.24889 8.87816 7.88103 8.87817L11.0417 8.8782L11.0417 13.7772L7.88108 13.7772C7.56493 13.7772 7.32789 13.8561 7.09086 14.0932C6.85375 14.3303 6.77479 14.5673 6.77479 14.8835C6.77487 15.5155 7.24893 15.9896 7.881 15.9897L11.0417 15.9896L11.0416 20.8887L7.88104 20.8886C7.56493 20.8887 7.32792 20.9676 7.09089 21.2047C6.85378 21.4418 6.7748 21.6788 6.77476 21.9949C6.77483 22.627 7.24893 23.1011 7.88098 23.1011L11.0417 23.1011L11.0417 25.9457C11.0417 26.1037 10.9626 26.1828 10.8837 26.2617C10.8046 26.3408 10.6466 26.4988 10.4886 26.4988L5.43148 26.4988C5.27351 26.4988 5.11547 26.3407 5.03646 26.2617C4.95745 26.1827 4.87842 26.1037 4.87837 25.9457Z" fill="#3E6C28"/>
<mask id="path-2-outside-1_3308_15877" maskUnits="userSpaceOnUse" x="14.333" y="-2.39347e-08" width="12" height="30" fill="black">
<rect fill="white" x="14.333" y="-2.39347e-08" width="12" height="30"/>
<path fill-rule="evenodd" clip-rule="evenodd" d="M20.857 28.7842C20.5897 29.0719 20.1563 29.0719 19.8891 28.7842L15.5335 24.0949C15.2662 23.8072 15.2662 23.3407 15.5335 23.0529C15.8007 22.7651 16.2341 22.7651 16.5014 23.0529L19.6886 26.4843L19.6886 3.51574L16.5014 6.9471C16.2341 7.23486 15.8007 7.23486 15.5335 6.9471C15.2662 6.65935 15.2662 6.1928 15.5335 5.90505L19.8891 1.21581C20.1563 0.928061 20.5897 0.928061 20.857 1.21581L25.2125 5.90505C25.4798 6.1928 25.4798 6.65935 25.2125 6.9471C24.9453 7.23486 24.5119 7.23486 24.2446 6.9471L21.0574 3.51574L21.0574 26.4843L24.2446 23.0529C24.5119 22.7651 24.9453 22.7651 25.2125 23.0529C25.4798 23.3407 25.4798 23.8072 25.2125 24.0949L20.857 28.7842Z"/>
</mask>
<path fill-rule="evenodd" clip-rule="evenodd" d="M20.857 28.7842C20.5897 29.0719 20.1563 29.0719 19.8891 28.7842L15.5335 24.0949C15.2662 23.8072 15.2662 23.3407 15.5335 23.0529C15.8007 22.7651 16.2341 22.7651 16.5014 23.0529L19.6886 26.4843L19.6886 3.51574L16.5014 6.9471C16.2341 7.23486 15.8007 7.23486 15.5335 6.9471C15.2662 6.65935 15.2662 6.1928 15.5335 5.90505L19.8891 1.21581C20.1563 0.928061 20.5897 0.928061 20.857 1.21581L25.2125 5.90505C25.4798 6.1928 25.4798 6.65935 25.2125 6.9471C24.9453 7.23486 24.5119 7.23486 24.2446 6.9471L21.0574 3.51574L21.0574 26.4843L24.2446 23.0529C24.5119 22.7651 24.9453 22.7651 25.2125 23.0529C25.4798 23.3407 25.4798 23.8072 25.2125 24.0949L20.857 28.7842Z" fill="#3E6C28"/>
<path d="M19.8891 28.7842L20.0356 28.6481L20.0356 28.6481L19.8891 28.7842ZM20.857 28.7842L20.7104 28.6481L20.7104 28.6481L20.857 28.7842ZM15.5335 24.0949L15.3869 24.2311L15.3869 24.2311L15.5335 24.0949ZM16.5014 23.0529L16.3548 23.189L16.3548 23.189L16.5014 23.0529ZM19.6886 26.4843L19.5421 26.6204L19.8886 26.9935L19.8886 26.4843L19.6886 26.4843ZM19.6886 3.51574L19.8886 3.51574L19.8886 3.00654L19.5421 3.37962L19.6886 3.51574ZM16.5014 6.9471L16.6479 7.08321L16.6479 7.08321L16.5014 6.9471ZM15.5335 5.90505L15.68 6.04116L15.68 6.04116L15.5335 5.90505ZM19.8891 1.21581L19.7425 1.0797L19.7425 1.0797L19.8891 1.21581ZM20.857 1.21581L21.0035 1.0797L21.0035 1.0797L20.857 1.21581ZM25.2125 5.90505L25.066 6.04116L25.066 6.04116L25.2125 5.90505ZM24.2446 6.9471L24.0981 7.08321L24.0981 7.08321L24.2446 6.9471ZM21.0574 3.51574L21.204 3.37962L20.8574 3.00654L20.8574 3.51574L21.0574 3.51574ZM21.0574 26.4843L20.8574 26.4843L20.8574 26.9935L21.204 26.6204L21.0574 26.4843ZM24.2446 23.0529L24.3912 23.189L24.3912 23.189L24.2446 23.0529ZM25.2125 24.0949L25.3591 24.2311L25.3591 24.2311L25.2125 24.0949ZM19.7425 28.9203C20.0889 29.2932 20.6571 29.2932 21.0035 28.9203L20.7104 28.6481C20.5223 28.8506 20.2237 28.8506 20.0356 28.6481L19.7425 28.9203ZM15.3869 24.2311L19.7425 28.9203L20.0356 28.6481L15.68 23.9588L15.3869 24.2311ZM15.3869 22.9168C15.0484 23.2813 15.0484 23.8666 15.3869 24.2311L15.68 23.9588C15.484 23.7478 15.484 23.4 15.68 23.189L15.3869 22.9168ZM16.6479 22.9168C16.3015 22.5438 15.7333 22.5438 15.3869 22.9168L15.68 23.189C15.8682 22.9864 16.1667 22.9864 16.3548 23.189L16.6479 22.9168ZM19.8351 26.3482L16.6479 22.9168L16.3548 23.189L19.5421 26.6204L19.8351 26.3482ZM19.4886 3.51574L19.4886 26.4843L19.8886 26.4843L19.8886 3.51574L19.4886 3.51574ZM16.6479 7.08321L19.8351 3.65185L19.5421 3.37962L16.3548 6.81099L16.6479 7.08321ZM15.3869 7.08321C15.7333 7.45615 16.3015 7.45615 16.6479 7.08321L16.3548 6.81099C16.1667 7.01356 15.8682 7.01356 15.68 6.81099L15.3869 7.08321ZM15.3869 5.76894C15.0484 6.13343 15.0484 6.71872 15.3869 7.08321L15.68 6.81099C15.484 6.59998 15.484 6.25217 15.68 6.04116L15.3869 5.76894ZM19.7425 1.0797L15.3869 5.76894L15.68 6.04116L20.0356 1.35193L19.7425 1.0797ZM21.0035 1.0797C20.6571 0.706765 20.0889 0.706765 19.7425 1.0797L20.0356 1.35193C20.2237 1.14936 20.5223 1.14936 20.7104 1.35193L21.0035 1.0797ZM25.3591 5.76894L21.0035 1.0797L20.7104 1.35193L25.066 6.04116L25.3591 5.76894ZM25.3591 7.08321C25.6976 6.71872 25.6976 6.13343 25.3591 5.76894L25.066 6.04116C25.262 6.25217 25.262 6.59998 25.066 6.81099L25.3591 7.08321ZM24.0981 7.08321C24.4445 7.45615 25.0127 7.45615 25.3591 7.08321L25.066 6.81099C24.8779 7.01356 24.5793 7.01356 24.3912 6.81099L24.0981 7.08321ZM20.9109 3.65185L24.0981 7.08321L24.3912 6.81099L21.204 3.37962L20.9109 3.65185ZM21.2574 26.4843L21.2574 3.51574L20.8574 3.51574L20.8574 26.4843L21.2574 26.4843ZM24.0981 22.9168L20.9109 26.3482L21.204 26.6204L24.3912 23.189L24.0981 22.9168ZM25.3591 22.9168C25.0127 22.5438 24.4445 22.5438 24.0981 22.9168L24.3912 23.189C24.5793 22.9864 24.8779 22.9864 25.066 23.189L25.3591 22.9168ZM25.3591 24.2311C25.6976 23.8666 25.6976 23.2813 25.3591 22.9168L25.066 23.189C25.262 23.4 25.262 23.7478 25.066 23.9588L25.3591 24.2311ZM21.0035 28.9203L25.3591 24.2311L25.066 23.9588L20.7104 28.6481L21.0035 28.9203Z" fill="#8EAD9A" mask="url(#path-2-outside-1_3308_15877)"/>
</svg>
