<svg width="20" height="14" viewBox="0 0 20 14" fill="none" xmlns="http://www.w3.org/2000/svg">
<path fill-rule="evenodd" clip-rule="evenodd" d="M10 0.5C7.38223 0.5 5.02801 1.55139 3.33162 2.85335C2.48232 3.50519 1.78544 4.22913 1.29649 4.93368C0.81686 5.6248 0.5 6.3515 0.5 7C0.5 7.6485 0.81686 8.3752 1.29649 9.0663C1.78544 9.7709 2.48232 10.4948 3.33162 11.1466C5.02801 12.4486 7.38223 13.5 10 13.5C12.6178 13.5 14.972 12.4486 16.6684 11.1466C17.5177 10.4948 18.2146 9.7709 18.7035 9.0663C19.1831 8.3752 19.5 7.6485 19.5 7C19.5 6.3515 19.1831 5.6248 18.7035 4.93368C18.2146 4.22913 17.5177 3.50519 16.6684 2.85335C14.972 1.55139 12.6178 0.5 10 0.5ZM6.25 7C6.25 4.92893 7.92893 3.25 10 3.25C12.0711 3.25 13.75 4.92893 13.75 7C13.75 9.0711 12.0711 10.75 10 10.75C7.92893 10.75 6.25 9.0711 6.25 7Z" fill="#C9C9DA"/>
</svg>
