<svg width="24" height="24" viewBox="0 0 24 24" fill="none" xmlns="http://www.w3.org/2000/svg">
<path d="M12 10C12 8.4087 11.3679 6.88258 10.2426 5.75736C9.11742 4.63214 7.5913 4 6 4H3V6C3 7.5913 3.63214 9.11742 4.75736 10.2426C5.88258 11.3679 7.4087 12 9 12H12" fill="#FDAD00" stroke="#FDAD00" stroke-width="2" stroke-linecap="round" stroke-linejoin="round"/>
<mask id="mask0_3185_1051" style="mask-type:alpha" maskUnits="userSpaceOnUse" x="-1" y="-1" width="26" height="26">
<path fill-rule="evenodd" clip-rule="evenodd" d="M24 0H0V4.5V24H24V0ZM0 4.5L3 1L5 1C7.65217 1 10.1957 2.10625 12.0711 4.07538C13.9464 6.04451 15 8.71523 15 11.5V12C15 13.6569 13.6569 15 12 15H10C7.34783 15 4.8043 13.8938 2.92893 11.9246C1.05357 9.95549 0 7.28477 0 4.5Z" fill="#BF7152"/>
<path d="M0 0V-0.75C-0.414214 -0.75 -0.75 -0.414214 -0.75 0L0 0ZM24 0H24.75C24.75 -0.414214 24.4142 -0.75 24 -0.75V0ZM0 24H-0.75C-0.75 24.4142 -0.414214 24.75 0 24.75L0 24ZM24 24V24.75C24.4142 24.75 24.75 24.4142 24.75 24H24ZM3 1V0.25C2.78106 0.25 2.57304 0.345672 2.43056 0.511906L3 1ZM5 1V1.75V1ZM12.0711 4.07538L12.6142 3.55814L12.0711 4.07538ZM15 11.5H14.25H15ZM10 15V15.75V15ZM2.92893 11.9246L2.38583 12.4419L2.92893 11.9246ZM3 1.75C3.41421 1.75 3.75 1.41421 3.75 1C3.75 0.585786 3.41421 0.25 3 0.25V1.75ZM-0.75 4C-0.75 4.41421 -0.414214 4.75 0 4.75C0.414214 4.75 0.75 4.41421 0.75 4H-0.75ZM0 0.75H24V-0.75H0V0.75ZM0.75 4.5V0H-0.75V4.5H0.75ZM0.75 24V4.5H-0.75V24H0.75ZM24 23.25H0V24.75H24V23.25ZM23.25 0V24H24.75V0H23.25ZM2.43056 0.511906L-0.569442 4.01191L0.569442 4.98809L3.56944 1.48809L2.43056 0.511906ZM5 0.25L3 0.25V1.75L5 1.75V0.25ZM12.6142 3.55814C10.6013 1.44462 7.86321 0.25 5 0.25V1.75C7.44112 1.75 9.79012 2.76788 11.528 4.59262L12.6142 3.55814ZM15.75 11.5C15.75 8.5278 14.6259 5.67042 12.6142 3.55814L11.528 4.59262C13.267 6.41861 14.25 8.90265 14.25 11.5H15.75ZM15.75 12V11.5H14.25V12H15.75ZM12 15.75C14.0711 15.75 15.75 14.0711 15.75 12H14.25C14.25 13.2426 13.2426 14.25 12 14.25V15.75ZM10 15.75H12V14.25H10V15.75ZM2.38583 12.4419C4.39871 14.5554 7.13679 15.75 10 15.75V14.25C7.55888 14.25 5.20989 13.2321 3.47204 11.4074L2.38583 12.4419ZM-0.75 4.5C-0.75 7.4722 0.374136 10.3296 2.38583 12.4419L3.47204 11.4074C1.733 9.58139 0.75 7.09735 0.75 4.5H-0.75ZM3 0.25C0.928933 0.25 -0.75 1.92893 -0.75 4H0.75C0.75 2.75736 1.75736 1.75 3 1.75V0.25Z" fill="#BF7152"/>
</mask>
<g mask="url(#mask0_3185_1051)">
<path d="M12 14C12 12.4087 12.6321 10.8826 13.7574 9.75736C14.8826 8.63214 16.4087 8 18 8H21V9C21 10.5913 20.3679 12.1174 19.2426 13.2426C18.1174 14.3679 16.5913 15 15 15H12" fill="#FDAD00" stroke="#FDAD00" stroke-width="2" stroke-linecap="round" stroke-linejoin="round"/>
<path d="M12 22L12 12" stroke="#FDAD00" stroke-width="2" stroke-linecap="round" stroke-linejoin="round"/>
</g>
</svg>
