<svg width="28" height="28" viewBox="0 0 28 28" fill="none" xmlns="http://www.w3.org/2000/svg">
<path d="M14 25.5C7.675 25.5 2.5 20.325 2.5 14C2.5 7.675 7.675 2.5 14 2.5C20.325 2.5 25.5 7.675 25.5 14C25.5 20.325 20.325 25.5 14 25.5ZM14 4.8C8.94 4.8 4.8 8.94 4.8 14C4.8 19.06 8.94 23.2 14 23.2C19.06 23.2 23.2 19.06 23.2 14C23.2 8.94 19.06 4.8 14 4.8Z" fill="#3E6C28"/>
<path d="M19.6356 15.1508H14.0006C13.3106 15.1508 12.8506 14.6908 12.8506 14.0008V8.36582C12.8506 7.67582 13.3106 7.21582 14.0006 7.21582C14.6906 7.21582 15.1506 7.67582 15.1506 8.36582V12.8508H19.6356C20.3256 12.8508 20.7856 13.3108 20.7856 14.0008C20.7856 14.6908 20.3256 15.1508 19.6356 15.1508Z" fill="#3E6C28"/>
</svg>
