<svg width="24" height="24" viewBox="0 0 24 24" fill="none" xmlns="http://www.w3.org/2000/svg">
<path fill-rule="evenodd" clip-rule="evenodd" d="M17.2399 7.52393C17.2399 10.8396 14.7585 13.3239 11.9399 13.3239C9.1214 13.3239 6.63994 10.8396 6.63994 7.52393C6.63994 5.91769 7.2223 4.50654 8.14323 3.47842C9.14017 2.55994 10.4729 2 11.94 2C13.4345 2 14.7896 2.58105 15.7923 3.54147C16.681 4.56388 17.2399 5.95028 17.2399 7.52393ZM6.86877 12.6939C5.28456 13.6931 4.0014 15.1727 3.24 17C2.84 18 2.94 19.2 3.54 20.1C4.14 21.1 5.24 21.6 6.44 21.6H17.54C18.74 21.6 19.74 21 20.44 20.1C21.04 19.2 21.14 18.1 20.64 17.1C19.8694 15.2506 18.5643 13.7574 16.9536 12.7578C15.6821 14.1558 13.9057 15.0239 11.9399 15.0239C9.94441 15.0239 8.1439 14.1293 6.86877 12.6939Z" fill="#FDAD00"/>
</svg>
