<svg width="30" height="28" viewBox="0 0 30 28" fill="none" xmlns="http://www.w3.org/2000/svg">
<path d="M28.8124 22.5099L28.8123 17.4528C28.8123 15.8725 27.5481 14.6082 26.0468 14.6873L4.15925 14.6082C2.57895 14.6082 1.31466 15.8725 1.39365 17.3738L1.39368 22.4309C1.39365 23.221 1.63072 23.9322 2.18383 24.4853C2.73694 25.0384 3.44808 25.2755 4.15923 25.3545L25.9678 25.3545C26.6789 25.2755 27.3901 25.0384 27.9432 24.4853C28.4963 23.9322 28.7333 23.2211 28.8124 22.5099ZM26.0468 23.063L4.08019 23.063C3.92222 23.063 3.8432 22.984 3.76419 22.9049C3.68517 22.8259 3.60609 22.5889 3.52708 22.5099L3.52712 17.4528C3.52709 17.1368 3.76412 16.8998 4.08023 16.8997L6.76675 16.8998L6.76681 20.0604C6.76676 20.3765 6.84576 20.6135 7.08281 20.8506C7.31986 21.0876 7.55692 21.1666 7.87303 21.1666C8.50516 21.1666 8.97923 20.6925 8.97924 20.0604L8.97927 16.8997L13.8782 16.8998L13.8783 20.0603C13.8783 20.3765 13.9572 20.6135 14.1942 20.8505C14.4314 21.0877 14.6684 21.1666 14.9845 21.1666C15.6166 21.1665 16.0907 20.6925 16.0908 20.0604L16.0907 16.8997L20.9898 16.8998L20.9897 20.0604C20.9897 20.3765 21.0687 20.6135 21.3058 20.8505C21.5429 21.0876 21.7799 21.1666 22.096 21.1666C22.728 21.1666 23.2021 20.6925 23.2022 20.0604L23.2022 16.8997L26.0468 16.8997C26.2048 16.8997 26.2839 16.9788 26.3628 17.0577C26.4419 17.1368 26.5998 17.2948 26.5999 17.4528L26.5999 22.5099C26.5999 22.6679 26.4418 22.8259 26.3628 22.9049C26.2838 22.984 26.2048 23.063 26.0468 23.063Z" fill="#3E6C28"/>
<mask id="path-2-outside-1_3308_16844" maskUnits="userSpaceOnUse" x="-9.749e-09" y="1.72461" width="30" height="12" fill="black">
<rect fill="white" x="-9.749e-09" y="1.72461" width="30" height="12"/>
<path fill-rule="evenodd" clip-rule="evenodd" d="M28.7842 7.20066C29.0719 7.46794 29.0719 7.90128 28.7842 8.16856L24.0949 12.5241C23.8072 12.7914 23.3407 12.7914 23.0529 12.5241C22.7651 12.2569 22.7651 11.8235 23.0529 11.5562L26.4843 8.36902L3.51574 8.36902L6.9471 11.5562C7.23486 11.8235 7.23486 12.2569 6.9471 12.5241C6.65935 12.7914 6.1928 12.7914 5.90505 12.5241L1.21582 8.16856C0.928061 7.90128 0.928061 7.46794 1.21582 7.20066L5.90505 2.84507C6.1928 2.57779 6.65935 2.57779 6.9471 2.84507C7.23486 3.11235 7.23486 3.5457 6.9471 3.81298L3.51574 7.0002L26.4843 7.0002L23.0529 3.81298C22.7651 3.5457 22.7651 3.11235 23.0529 2.84507C23.3407 2.57779 23.8072 2.57779 24.095 2.84507L28.7842 7.20066Z"/>
</mask>
<path fill-rule="evenodd" clip-rule="evenodd" d="M28.7842 7.20066C29.0719 7.46794 29.0719 7.90128 28.7842 8.16856L24.0949 12.5241C23.8072 12.7914 23.3407 12.7914 23.0529 12.5241C22.7651 12.2569 22.7651 11.8235 23.0529 11.5562L26.4843 8.36902L3.51574 8.36902L6.9471 11.5562C7.23486 11.8235 7.23486 12.2569 6.9471 12.5241C6.65935 12.7914 6.1928 12.7914 5.90505 12.5241L1.21582 8.16856C0.928061 7.90128 0.928061 7.46794 1.21582 7.20066L5.90505 2.84507C6.1928 2.57779 6.65935 2.57779 6.9471 2.84507C7.23486 3.11235 7.23486 3.5457 6.9471 3.81298L3.51574 7.0002L26.4843 7.0002L23.0529 3.81298C22.7651 3.5457 22.7651 3.11235 23.0529 2.84507C23.3407 2.57779 23.8072 2.57779 24.095 2.84507L28.7842 7.20066Z" fill="#3E6C28"/>
<path d="M28.7842 8.16856L28.6481 8.02203L28.6481 8.02203L28.7842 8.16856ZM28.7842 7.20066L28.6481 7.34719L28.6481 7.3472L28.7842 7.20066ZM24.0949 12.5241L24.2311 12.6707L24.2311 12.6707L24.0949 12.5241ZM26.4843 8.36902L26.6204 8.51556L26.9935 8.16902L26.4843 8.16902L26.4843 8.36902ZM3.51574 8.36902L3.51574 8.16902L3.00654 8.16902L3.37962 8.51556L3.51574 8.36902ZM6.9471 11.5562L7.08321 11.4097L7.08321 11.4097L6.9471 11.5562ZM5.90505 12.5241L6.04116 12.3776L6.04116 12.3776L5.90505 12.5241ZM1.21582 8.16856L1.0797 8.3151L1.0797 8.3151L1.21582 8.16856ZM1.21582 7.20066L1.0797 7.05412L1.0797 7.05412L1.21582 7.20066ZM5.90505 2.84507L6.04116 2.99161L6.04116 2.99161L5.90505 2.84507ZM6.9471 3.81298L7.08321 3.95952L7.08321 3.95952L6.9471 3.81298ZM3.51574 7.0002L3.37962 6.85366L3.00654 7.2002L3.51574 7.2002L3.51574 7.0002ZM26.4843 7.0002L26.4843 7.2002L26.9935 7.2002L26.6204 6.85366L26.4843 7.0002ZM23.0529 3.81298L22.9168 3.95952L22.9168 3.95952L23.0529 3.81298ZM24.095 2.84507L24.2311 2.69853L24.2311 2.69853L24.095 2.84507ZM28.9203 8.3151C29.2932 7.9687 29.2932 7.40052 28.9203 7.05412L28.6481 7.3472C28.8506 7.53535 28.8506 7.83387 28.6481 8.02203L28.9203 8.3151ZM24.2311 12.6707L28.9203 8.3151L28.6481 8.02203L23.9588 12.3776L24.2311 12.6707ZM22.9168 12.6707C23.2813 13.0092 23.8666 13.0092 24.2311 12.6707L23.9588 12.3776C23.7478 12.5736 23.4 12.5736 23.189 12.3776L22.9168 12.6707ZM22.9168 11.4097C22.5438 11.7561 22.5438 12.3243 22.9168 12.6707L23.189 12.3776C22.9864 12.1895 22.9864 11.8909 23.189 11.7028L22.9168 11.4097ZM26.3482 8.22249L22.9168 11.4097L23.189 11.7028L26.6204 8.51556L26.3482 8.22249ZM3.51574 8.56902L26.4843 8.56902L26.4843 8.16902L3.51574 8.16902L3.51574 8.56902ZM7.08321 11.4097L3.65185 8.22249L3.37962 8.51556L6.81099 11.7028L7.08321 11.4097ZM7.08321 12.6707C7.45615 12.3243 7.45615 11.7561 7.08321 11.4097L6.81099 11.7028C7.01356 11.8909 7.01356 12.1895 6.81099 12.3776L7.08321 12.6707ZM5.76894 12.6707C6.13343 13.0092 6.71872 13.0092 7.08321 12.6707L6.81099 12.3776C6.59998 12.5736 6.25217 12.5736 6.04116 12.3776L5.76894 12.6707ZM1.0797 8.3151L5.76894 12.6707L6.04116 12.3776L1.35193 8.02203L1.0797 8.3151ZM1.0797 7.05412C0.706765 7.40052 0.706765 7.9687 1.0797 8.3151L1.35193 8.02203C1.14936 7.83387 1.14936 7.53535 1.35193 7.34719L1.0797 7.05412ZM5.76894 2.69853L1.0797 7.05412L1.35193 7.34719L6.04116 2.99161L5.76894 2.69853ZM7.08321 2.69853C6.71872 2.35997 6.13343 2.35997 5.76894 2.69853L6.04116 2.99161C6.25217 2.79561 6.59998 2.79561 6.81099 2.99161L7.08321 2.69853ZM7.08321 3.95952C7.45615 3.61311 7.45615 3.04494 7.08321 2.69853L6.81099 2.99161C7.01356 3.17977 7.01356 3.47828 6.81099 3.66644L7.08321 3.95952ZM3.65185 7.14673L7.08321 3.95952L6.81099 3.66644L3.37962 6.85366L3.65185 7.14673ZM26.4843 6.8002L3.51574 6.8002L3.51574 7.2002L26.4843 7.2002L26.4843 6.8002ZM22.9168 3.95952L26.3482 7.14673L26.6204 6.85366L23.189 3.66644L22.9168 3.95952ZM22.9168 2.69853C22.5438 3.04494 22.5438 3.61311 22.9168 3.95952L23.189 3.66644C22.9864 3.47828 22.9864 3.17977 23.189 2.99161L22.9168 2.69853ZM24.2311 2.69853C23.8666 2.35997 23.2813 2.35997 22.9168 2.69853L23.189 2.99161C23.4 2.79561 23.7478 2.79561 23.9588 2.99161L24.2311 2.69853ZM28.9203 7.05412L24.2311 2.69853L23.9588 2.99161L28.6481 7.34719L28.9203 7.05412Z" fill="#8EAD9A" mask="url(#path-2-outside-1_3308_16844)"/>
</svg>
